<svg xmlns="http://www.w3.org/2000/svg" xmlns:xlink="http://www.w3.org/1999/xlink" width="180" height="63.396" viewBox="0 0 180 63.396"><defs><style>.a{fill:#5f213a;}.b{fill:#8b969a;}.c{clip-path:url(#a);}</style><clipPath id="a"><path d="M239.763,36.574h7.371V46.652h-7.371Zm0,0" transform="translate(-239.763 -36.574)"/></clipPath></defs><g transform="translate(0)"><path class="a" d="M60.105,29.172a11.768,11.768,0,0,1,2.406,4.01,14.422,14.422,0,0,1,.8,5.033A19.877,19.877,0,0,1,58.9,49.99S63.564,36.9,49.165,31.87q-2.37-.947-5.433-2.078-3.063-1.166-5.287-2.188a17.405,17.405,0,0,1-6.821-5.142,13.561,13.561,0,0,1-2.405-8.351,12.765,12.765,0,0,1,1.2-5.506,14.346,14.346,0,0,1,3.428-4.559,15.321,15.321,0,0,1,5-2.954A16.811,16.811,0,0,1,44.862,0a17.487,17.487,0,0,1,6.381,1.093,30.137,30.137,0,0,1,5.178,2.554L58.284.412H60.8V18.341h-2.63q-.8-2.954-1.824-5.652A19.605,19.605,0,0,0,53.76,7.8a11.8,11.8,0,0,0-3.83-3.355,11.148,11.148,0,0,0-5.543-1.276A8.46,8.46,0,0,0,38.481,5.4a7.07,7.07,0,0,0-2.443,5.434,9.429,9.429,0,0,0,1.568,5.579,11.545,11.545,0,0,0,4.558,3.61q2.663,1.276,5.216,2.225,2.585.911,5,1.968a36.2,36.2,0,0,1,4.193,2.151,15.718,15.718,0,0,1,3.537,2.809" transform="translate(-8.181 0.002)"/><path class="b" d="M44.322,57.369a20.813,20.813,0,0,0,4.112-3.209v9.4H0V.58H17.328a17.223,17.223,0,0,0-3.694,5.094,15.445,15.445,0,0,0-1.457,6.668q0,6.225,2.913,10.11a21.06,21.06,0,0,0,8.256,6.225q2.694,1.238,6.4,2.649,3.711,1.37,6.579,2.516a13.015,13.015,0,0,1,6.313,4.945,12.464,12.464,0,0,1,2.12,6.976,13.56,13.56,0,0,1-.707,4.548,8.443,8.443,0,0,1-2.075,3.4c-4.654,4.534-11.862,4.489-14.522,3.454C24.477,56.008,15.974,52.866,10.933,36c5.776,15.184,15.1,22.266,23.334,19.868-3.4-.08-5.123-.067-5.765-1.712-.559-1.424.608-2.294-.653-2.564-1.175-.255-2.7,1.165-2.6-.622.063-1.125,3.619-3.869,1.078-5.858-1.848-1.445-2.742,1.605-4.162.389-.969-.831,3.076-10.147-.563-10.339-2.052-.107-2.249,3.462-3.342,2.68-.556-.4,1.218-5.694-1.777-6.48-2.053-.538-1.947,3.089-2.758,2.68s.316-3.466-1.407-3.908c-2.163-.554-1.7,2.628-2.97,2.709s-2.371-2.408-4.111.519c-1.085,1.824,1.953,4.257,1.372,5.022s-4.17-.273-3.928,2.568c.2,2.357,3.967,1.843,4.026,2.63s-3,1.837-2.657,2.744c1.279,3.423,8.3.357,9.6,3.344.785,1.8-2.963,3.755-.282,5.211,1.472.8,3.053-2.012,5.536-1.012,2.282.92-.931,2.412.557,3.143,1.692.832,4.771.01,5.824.731,3.17,2.18,13.347,2.447,19.034-.372" transform="translate(0 -0.161)"/><path class="b" d="M101.23,10.676v5.854c0,2.215.984,3.155,2.3,3.155,1.468,0,2.406-.968,2.406-3.155V10.676h1.292v5.765c0,3.039-1.6,4.286-3.741,4.286-2.026,0-3.551-1.159-3.551-4.226V10.676" transform="translate(-27.983 -2.988)"/><path class="b" d="M115.736,20.565V10.676h1.394l3.168,5a28.443,28.443,0,0,1,1.777,3.213l.028-.015c-.117-1.319-.147-2.523-.147-4.064V10.676h1.2v9.889h-1.29l-3.142-5.018a31.774,31.774,0,0,1-1.848-3.3l-.043.014c.074,1.248.1,2.436.1,4.08v4.225" transform="translate(-32.406 -2.988)"/><path class="b" d="M131.738,20.565h1.276V10.676h-1.276Zm0,0" transform="translate(-36.886 -2.988)"/><path class="b" d="M140.959,20.565l-3.23-9.889h1.379l1.543,4.871c.424,1.335.79,2.539,1.055,3.7h.029c.278-1.145.69-2.393,1.129-3.684l1.674-4.885H145.9l-3.538,9.889" transform="translate(-38.564 -2.988)"/><path class="b" d="M158.281,15.929h-3.845v3.566h4.285v1.071h-5.561V10.676H158.5v1.071h-4.065v3.127h3.845" transform="translate(-42.884 -2.988)"/><path class="b" d="M167.053,15.284h1.307c1.364,0,2.23-.749,2.23-1.878,0-1.276-.925-1.834-2.274-1.849a5.277,5.277,0,0,0-1.262.117Zm-1.276-4.5a13.285,13.285,0,0,1,2.451-.206,4.041,4.041,0,0,1,2.861.808,2.465,2.465,0,0,1,.779,1.878A2.6,2.6,0,0,1,170,15.783v.043a2.463,2.463,0,0,1,1.453,2,15.507,15.507,0,0,0,.765,2.714H170.9a12.745,12.745,0,0,1-.659-2.362c-.293-1.364-.822-1.878-1.982-1.921h-1.2v4.283h-1.276" transform="translate(-46.417 -2.959)"/><path class="b" d="M178.961,18.948a4.533,4.533,0,0,0,2.29.645c1.307,0,2.069-.69,2.069-1.688,0-.923-.528-1.453-1.863-1.966-1.615-.571-2.612-1.408-2.612-2.8,0-1.54,1.276-2.685,3.2-2.685a4.472,4.472,0,0,1,2.185.484l-.352,1.041a3.941,3.941,0,0,0-1.878-.47c-1.35,0-1.863.808-1.863,1.482,0,.926.6,1.38,1.967,1.909,1.671.645,2.523,1.453,2.523,2.906,0,1.525-1.13,2.846-3.463,2.846a5.119,5.119,0,0,1-2.525-.631" transform="translate(-50.019 -2.925)"/><path class="b" d="M191.969,20.565h1.278V10.676h-1.278Zm0,0" transform="translate(-53.751 -2.988)"/><path class="b" d="M200.868,11.762H197.86V10.676h7.323v1.086h-3.024v8.8h-1.292" transform="translate(-55.401 -2.988)"/><path class="b" d="M217.269,15.929h-3.843v3.566h4.284v1.071h-5.561V10.676h5.341v1.071h-4.064v3.127h3.843" transform="translate(-59.401 -2.988)"/><path class="b" d="M224.765,20.565h1.278V10.676h-1.278Zm0,0" transform="translate(-62.934 -2.988)"/><path class="b" d="M233.665,11.762h-3.007V10.676h7.321v1.086h-3.022v8.8h-1.292" transform="translate(-64.584 -2.988)"/><path class="b" d="M91.089,44.893a4.529,4.529,0,0,0,2.29.644c1.305,0,2.067-.689,2.067-1.687,0-.925-.527-1.453-1.863-1.967-1.613-.571-2.611-1.408-2.611-2.8,0-1.54,1.276-2.685,3.2-2.685a4.486,4.486,0,0,1,2.187.485L96,37.922a3.934,3.934,0,0,0-1.878-.471c-1.35,0-1.864.809-1.864,1.483,0,.924.6,1.379,1.967,1.907,1.672.646,2.525,1.453,2.525,2.906,0,1.526-1.132,2.845-3.465,2.845a5.119,5.119,0,0,1-2.524-.63" transform="translate(-25.414 -10.19)"/><path class="b" d="M105.536,37.706h-3.008V36.62h7.323v1.086h-3.024v8.806h-1.29" transform="translate(-28.707 -10.252)"/><path class="b" d="M121.937,41.872h-3.843v3.567h4.283v1.072h-5.56V36.62h5.34V37.69h-4.064v3.127h3.843" transform="translate(-32.709 -10.252)"/><path class="b" d="M129.432,36.62h1.278v8.819h4.226v1.073h-5.5" transform="translate(-36.241 -10.252)"/><path class="b" d="M141.643,36.62h1.276v8.819h4.225v1.073h-5.5" transform="translate(-39.66 -10.252)"/><path class="b" d="M158.972,41.872h-3.844v3.567h4.285v1.072h-5.561V36.62h5.34V37.69h-4.064v3.127h3.844" transform="translate(-43.078 -10.252)"/><path class="b" d="M166.469,46.511V36.62h1.393l3.171,5a27.734,27.734,0,0,1,1.774,3.213l.031-.015c-.118-1.32-.147-2.525-.147-4.065V36.62h1.2v9.891H172.6l-3.139-5.02a31.431,31.431,0,0,1-1.849-3.3l-.043.014c.072,1.248.1,2.437.1,4.08v4.228" transform="translate(-46.611 -10.252)"/><path class="b" d="M183.746,45.512a6.79,6.79,0,0,0,1.073.059c1.319,0,2.537-.484,2.537-1.92,0-1.351-1.16-1.91-2.554-1.91h-1.057Zm0-4.739h1.159c1.35,0,2.144-.7,2.144-1.659,0-1.158-.881-1.613-2.173-1.613a5.464,5.464,0,0,0-1.13.088Zm-1.276-4.05a12.419,12.419,0,0,1,2.333-.206,4.1,4.1,0,0,1,2.715.719,2.077,2.077,0,0,1,.822,1.747,2.347,2.347,0,0,1-1.674,2.17v.03a2.549,2.549,0,0,1,2.041,2.479,2.665,2.665,0,0,1-.837,1.981,4.971,4.971,0,0,1-3.419.925,14.771,14.771,0,0,1-1.981-.118" transform="translate(-51.091 -10.224)"/><path class="b" d="M196.655,41.561c0,2.113,1.146,4,3.156,4,2.026,0,3.168-1.862,3.168-4.107,0-1.966-1.027-4.021-3.154-4.021-2.112,0-3.17,1.952-3.17,4.123m7.674-.161c0,3.4-2.068,5.209-4.592,5.209-2.611,0-4.446-2.026-4.446-5.019,0-3.139,1.952-5.194,4.593-5.194,2.7,0,4.445,2.069,4.445,5" transform="translate(-54.681 -10.19)"/><path class="b" d="M212.369,44.893a4.532,4.532,0,0,0,2.288.644c1.307,0,2.069-.689,2.069-1.687,0-.925-.527-1.453-1.863-1.967-1.614-.571-2.611-1.408-2.611-2.8,0-1.54,1.276-2.685,3.2-2.685a4.482,4.482,0,0,1,2.187.485l-.352,1.041a3.933,3.933,0,0,0-1.878-.471c-1.35,0-1.864.809-1.864,1.483,0,.924.6,1.379,1.967,1.907,1.671.646,2.522,1.453,2.522,2.906,0,1.526-1.129,2.845-3.462,2.845a5.119,5.119,0,0,1-2.525-.63" transform="translate(-59.372 -10.19)"/><path class="b" d="M232.06,46.125a6.356,6.356,0,0,1-2.612.468,4.621,4.621,0,0,1-4.885-5,4.922,4.922,0,0,1,5.165-5.194,5.315,5.315,0,0,1,2.347.439l-.307,1.041a4.666,4.666,0,0,0-2-.409c-2.317,0-3.858,1.482-3.858,4.078,0,2.423,1.393,3.978,3.8,3.978a5.09,5.09,0,0,0,2.083-.413" transform="translate(-62.877 -10.19)"/><g class="c" transform="translate(172.63 26.335)"><path class="b" d="M241.064,36.62v4.137h4.784V36.62h1.292v9.891h-1.292V41.872h-4.784v4.639h-1.276V36.62" transform="translate(-239.77 -36.587)"/></g><path class="b" d="M110.841,62.565v5.853c0,2.216.983,3.156,2.3,3.156,1.467,0,2.406-.969,2.406-3.156V62.565h1.29v5.765c0,3.038-1.6,4.285-3.741,4.285-2.024,0-3.551-1.158-3.551-4.226V62.565" transform="translate(-30.674 -17.517)"/><path class="b" d="M125.346,72.454V62.565h1.393l3.171,5a27.84,27.84,0,0,1,1.774,3.213l.03-.015c-.118-1.32-.147-2.523-.147-4.064V62.565h1.2v9.889h-1.29l-3.141-5.019a31.553,31.553,0,0,1-1.849-3.3l-.045.014c.074,1.248.1,2.434.1,4.079v4.226" transform="translate(-35.097 -17.517)"/><path class="b" d="M141.347,72.454h1.276V62.565h-1.276Zm0,0" transform="translate(-39.577 -17.517)"/><path class="b" d="M150.57,72.454l-3.229-9.889h1.38l1.54,4.87c.425,1.337.791,2.54,1.057,3.7h.029c.278-1.145.69-2.391,1.13-3.683l1.671-4.885h1.365l-3.535,9.889" transform="translate(-41.255 -17.517)"/><path class="b" d="M167.891,67.818h-3.844v3.566h4.285v1.072H162.77v-9.89h5.343v1.07h-4.065v3.126h3.844" transform="translate(-45.575 -17.517)"/><path class="b" d="M176.663,67.173h1.305c1.365,0,2.231-.749,2.231-1.878,0-1.278-.923-1.834-2.274-1.85a5.251,5.251,0,0,0-1.262.118Zm-1.276-4.506a13.427,13.427,0,0,1,2.451-.2,4.045,4.045,0,0,1,2.861.806,2.465,2.465,0,0,1,.777,1.878,2.6,2.6,0,0,1-1.863,2.523v.046a2.461,2.461,0,0,1,1.453,1.994,15.659,15.659,0,0,0,.763,2.715h-1.321a12.815,12.815,0,0,1-.662-2.362c-.292-1.365-.821-1.878-1.98-1.921h-1.2v4.283h-1.276" transform="translate(-49.108 -17.488)"/><path class="b" d="M188.572,70.837a4.533,4.533,0,0,0,2.29.645c1.306,0,2.069-.69,2.069-1.688,0-.925-.528-1.453-1.865-1.966-1.614-.571-2.611-1.41-2.611-2.8,0-1.542,1.276-2.686,3.2-2.686a4.476,4.476,0,0,1,2.185.485l-.352,1.04a3.947,3.947,0,0,0-1.877-.468c-1.351,0-1.864.808-1.864,1.483,0,.925.6,1.378,1.966,1.906,1.673.647,2.523,1.453,2.523,2.906,0,1.526-1.13,2.846-3.462,2.846a5.115,5.115,0,0,1-2.525-.63" transform="translate(-52.71 -17.454)"/><path class="b" d="M201.581,72.454h1.276V62.565h-1.276Zm0,0" transform="translate(-56.442 -17.517)"/><path class="b" d="M210.478,63.65h-3.008V62.565h7.323V63.65H211.77v8.8h-1.292" transform="translate(-58.091 -17.517)"/><path class="b" d="M223.6,72.454v-4.2l-3.125-5.692h1.453l1.394,2.729c.381.748.673,1.35.982,2.038h.029c.281-.645.617-1.29,1-2.038l1.424-2.729h1.453l-3.316,5.678v4.211" transform="translate(-61.733 -17.517)"/></g></svg>