<svg width="168px" height="150px" viewBox="0 0 168 150" version="1.1" xmlns="http://www.w3.org/2000/svg" xmlns:xlink="http://www.w3.org/1999/xlink">
	<g id="Page-1" stroke="none" stroke-width="1" fill="none" fill-rule="evenodd">
		<g id="IUCN-Opigno" fill="#4D4D4D" fill-rule="nonzero">
			<g id="Group" transform="translate(35.058824, 0.000000)">
				<path d="M89.4383456,22.53625 C85.954375,17.0637868 81.4405515,12.3363235 76.1652941,8.64419118 C78.3729044,15.0259926 83.25375,20.115 89.4383456,22.53625" id="Path"></path>
				<path d="M21.2982353,49.8766544 C21.2982353,65.3134926 33.5907353,77.8305882 48.7591544,77.8305882 C63.9275735,77.8305882 76.2255515,65.3134926 76.2255515,49.8766544 C76.2255515,47.9867647 76.0338235,46.1406985 75.6887132,44.3548897 C73.5468382,43.2483456 71.4980882,41.9884191 69.5534191,40.5805882 C70.7859559,43.4236397 71.4706985,46.5679779 71.4706985,49.8766544 C71.4706985,62.6402574 61.3036397,72.9880882 48.7591544,72.9880882 C36.2146691,72.9880882 26.0530882,62.6402574 26.0530882,49.8766544 C26.0530882,37.1130515 36.2146691,26.7652206 48.7591544,26.7652206 C52.0459191,26.7652206 55.1573897,27.4773529 57.9785294,28.7537132 C56.6035662,26.7706985 55.3710294,24.678125 54.291875,22.4924265 C52.5060662,22.1199265 50.66,21.9281967 48.7646324,21.9281967 C33.5907353,21.9227206 21.2982353,34.4398162 21.2982353,49.8766544" id="Path"></path>
				<path d="M80.0546324,28.1401838 C86.3542647,32.59375 94.5547426,33.2346691 94.5547426,33.2346691 L92.659375,28.4579044 C72.2156985,23.6373162 70.4353676,5.20952206 70.4353676,5.20952206 C69.7177574,4.64529412 65.2587132,2.93617647 65.2587132,2.93617647 C65.2368015,5.31908088 66.3488235,9.25224265 66.3488235,9.25224265 C69.6848897,21.9555882 80.0546324,28.1401838 80.0546324,28.1401838" id="Path"></path>
				<path d="M91.8595956,49.3288603 C91.8595956,50.8407721 91.7829044,52.3307721 91.635,53.8043382 C91.635,53.8207721 91.6295221,53.8426838 91.6295221,53.8645956 C91.5583088,54.5602941 91.4706618,55.2505147 91.3720588,55.9352574 C91.3665809,55.9462132 91.3665809,55.9571691 91.3665809,55.9736029 C91.3611029,55.9736029 91.3611029,55.9736029 91.3611029,55.968125 C91.1365074,57.4362132 90.8461765,58.8823897 90.4901103,60.2847426 C90.4627206,60.3888235 90.4298529,60.4983824 90.4079412,60.6024632 C90.2600368,61.1666912 90.1066544,61.7254412 89.9368382,62.2787132 C89.8601471,62.5306985 89.7725,62.7881618 89.6958088,63.0346691 C89.5698162,63.4290809 89.4383456,63.8234926 89.3013971,64.2069485 C89.1699265,64.5849265 89.0275,64.9629044 88.8795956,65.3354044 C88.7864706,65.5873897 88.6878676,65.8448529 88.5837868,66.0913603 C88.3920588,66.5624632 88.1948529,67.0280882 87.9866912,67.4937132 C87.9812132,67.5046691 87.9757353,67.515625 87.9702574,67.5211029 C87.9045221,67.6635294 87.8497426,67.8059559 87.7785294,67.9429044 C87.5539338,68.4413971 87.3129044,68.9234559 87.0663971,69.4109926 C87.0006618,69.5315074 86.9458824,69.6575 86.8801471,69.7834926 C86.6226838,70.2765074 86.3542647,70.7585662 86.0803676,71.240625 C86.0036765,71.3720956 85.9324632,71.5035662 85.8557721,71.6350368 C85.5928309,72.0897059 85.3134559,72.5334191 85.0286029,72.9771324 C84.9354779,73.1359926 84.836875,73.2948529 84.7382721,73.4482353 C84.4753309,73.8536029 84.2014338,74.2534926 83.9220588,74.6479044 C83.7905882,74.8396324 83.6591176,75.0258824 83.5276471,75.2121324 C83.2756618,75.5627206 83.0127206,75.9023529 82.7552574,76.2419853 C82.5799632,76.4665809 82.4046691,76.7021324 82.229375,76.92125 C82.0047794,77.2115809 81.76375,77.4909559 81.5281985,77.7758088 C81.3036029,78.03875 81.0844853,78.3071691 80.8544118,78.5701103 C80.6517279,78.8001838 80.4435662,79.0302574 80.2299265,79.2548529 C79.9998529,79.5068382 79.7643015,79.7588235 79.52875,80.0053309 C79.4684926,80.0655882 79.4137132,80.1258456 79.3534559,80.1915809 C79.1891176,80.3559191 79.0247794,80.5202574 78.8604412,80.6791176 C78.6358456,80.9037132 78.41125,81.1228309 78.1866544,81.3419485 C78.0442279,81.4734191 77.9072794,81.6103676 77.7648529,81.7418382 C77.6498162,81.8459191 77.5347794,81.9554779 77.4142647,82.0595588 C77.2061029,82.2458088 77.0034191,82.4265809 76.7897794,82.601875 C76.5651838,82.8045588 76.3405882,83.0017647 76.1105147,83.1934926 C76.0338235,83.2592279 75.9626103,83.3140074 75.8859191,83.3797426 C75.7051471,83.5276471 75.524375,83.6645956 75.3490809,83.8070221 C75.0368382,84.0535294 74.7245956,84.3109926 74.406875,84.5465441 C74.3575735,84.5848897 74.31375,84.6177574 74.2644485,84.650625 C74.1275,84.7547059 73.9850735,84.8533088 73.848125,84.9519118 C73.4646691,85.2367647 73.0757353,85.5106618 72.6813235,85.7790809 C72.6320221,85.8119485 72.5881985,85.8448162 72.544375,85.8722059 C72.4567279,85.9324632 72.3636029,85.9872426 72.2814338,86.0475 C71.8377206,86.3378309 71.3885294,86.6281618 70.9338603,86.9075368 C70.8571691,86.9513603 70.7859559,86.9951838 70.7092647,87.0390074 C70.6763971,87.0554412 70.6490074,87.071875 70.6270956,87.0883088 C70.1450368,87.3786397 69.6575,87.6580147 69.1644853,87.9264338 C69.0494485,87.9976471 68.9289338,88.0579044 68.8029412,88.1236397 C68.3318382,88.375625 67.8552574,88.6221324 67.3786765,88.8522059 C67.1869485,88.9453309 67.0006985,89.0329779 66.8089706,89.120625 C66.398125,89.3178309 65.9818015,89.5040809 65.56,89.6848529 C65.2696691,89.8108456 64.9738603,89.9258824 64.6780515,90.051875 C64.3548529,90.1833456 64.0316544,90.3093382 63.7084559,90.4298529 C63.2756985,90.5941912 62.8429412,90.7475735 62.4047059,90.8954779 C62.2075,90.9612132 62.0157721,91.0269485 61.8130882,91.0926838 C61.2159926,91.2898897 60.6079412,91.4706618 59.9944118,91.635 C59.9505882,91.6459559 59.9067647,91.6623897 59.8629412,91.6733456 C58.4660662,92.0458456 57.0363235,92.3580882 55.5846691,92.5991176 C54.9108824,92.7031985 54.2480515,92.7963235 53.5852206,92.8730147 C53.5085294,92.8784926 53.4263603,92.8949265 53.3551471,92.9004044 C52.9278676,92.9497059 52.5060662,92.9770956 52.0787868,93.0099632 C51.7336765,93.0373529 51.3995221,93.0702206 51.0598897,93.0866544 C50.8955515,93.0976103 50.7366912,93.0976103 50.5778309,93.1030882 C49.9807353,93.1304779 49.3781618,93.1523897 48.7755882,93.1523897 C47.3129779,93.1523897 45.8613235,93.0756985 44.4425368,92.9277941 C43.7139706,92.8511029 42.9854044,92.7579779 42.2568382,92.6484191 C40.8216176,92.4238235 39.4137868,92.1280147 38.0333456,91.7719485 C37.8963971,91.7336029 37.7594485,91.6952574 37.6170221,91.6569118 C37.0966176,91.5144853 36.5871691,91.3665809 36.0722426,91.2077206 C35.7928676,91.1200735 35.5134926,91.0214706 35.2395956,90.9283456 C34.8780515,90.8133088 34.5274632,90.6927941 34.176875,90.5613235 C33.7769853,90.4134191 33.3770956,90.2545588 32.9826838,90.0956985 C32.7580882,90.0080515 32.5389706,89.9204044 32.3198529,89.8327574 C31.8377941,89.6245956 31.3612132,89.4164338 30.8901103,89.1918382 C30.8517647,89.1754044 30.8134191,89.1589706 30.7750735,89.1370588 C30.6874265,89.0932353 30.5888235,89.0548897 30.5011765,89.0110662 C29.9972059,88.7755147 29.5041912,88.5180515 29.0111765,88.2605882 C28.9016176,88.2003309 28.7865809,88.1455515 28.6770221,88.0852941 C28.1840074,87.8223529 27.6964706,87.5429779 27.2144118,87.258125 C27.0938971,87.1869118 26.9788603,87.1211765 26.8528676,87.0499632 C26.3981985,86.7760662 25.9490074,86.4857353 25.5052941,86.1954044 C25.3573897,86.1022794 25.2149632,86.0091544 25.0670588,85.9160294 C24.6671691,85.6421324 24.2618015,85.3627574 23.8673897,85.0779044 C23.6866176,84.9464338 23.5058456,84.8204412 23.3305515,84.6889706 C22.9854412,84.4315074 22.6458088,84.1630882 22.3061765,83.8891912 C22.0815809,83.7138971 21.8679412,83.5386029 21.6488235,83.3633088 C21.3584926,83.1277574 21.0791176,82.8757721 20.7997426,82.6347426 C20.5422794,82.4101471 20.2793382,82.1855515 20.0273529,81.9609559 C19.7972794,81.7473162 19.5726838,81.5336765 19.3480882,81.3145588 C19.0961029,81.0790074 18.8386397,80.8325 18.5921324,80.5859926 C18.5428309,80.5312132 18.4935294,80.4873897 18.4442279,80.4380882 C18.2744118,80.2682721 18.1155515,80.0929779 17.9457353,79.9231618 C17.7211397,79.6930882 17.5075,79.4520588 17.2829044,79.2165074 C17.1623897,79.0850368 17.0363971,78.9535662 16.9104044,78.8166176 C16.8063235,78.6961029 16.6967647,78.5810662 16.5926838,78.4550735 C16.4064338,78.2414338 16.2256618,78.0277941 16.0448897,77.8086765 C15.8531618,77.5840809 15.6669118,77.3540074 15.4751838,77.1294118 C15.4149265,77.0527206 15.3601471,76.9760294 15.2944118,76.9048162 C15.1519853,76.7185662 15.0095588,76.5323162 14.8671324,76.3515441 C14.6261029,76.0338235 14.3795956,75.7215809 14.1495221,75.3983824 C14.1111765,75.3490809 14.0783088,75.3052574 14.0454412,75.2559559 C13.9468382,75.1135294 13.8482353,74.9711029 13.7496324,74.8286765 C13.4702574,74.4342647 13.1963603,74.034375 12.9279412,73.6344853 C12.9005515,73.5906618 12.8676838,73.5523162 12.8457721,73.5084926 C12.7855147,73.4208456 12.7362132,73.3277206 12.6759559,73.2400735 C12.3801471,72.7799265 12.0952941,72.3197794 11.8159191,71.8486765 C11.7775735,71.7774632 11.7392279,71.7172059 11.7008824,71.6459926 C11.6844485,71.6186029 11.6680147,71.5912132 11.6515809,71.5638235 C11.36125,71.0598529 11.081875,70.5613603 10.8134559,70.0409559 C10.7531985,69.936875 10.6984191,69.8218382 10.6381618,69.7122794 C10.3861765,69.2192647 10.1341912,68.7207721 9.89863971,68.2168015 C9.82194853,68.0415074 9.73977941,67.8607353 9.66308824,67.6909191 C9.46040441,67.2526838 9.26867647,66.8144485 9.08242647,66.3707353 C8.97286765,66.0913603 8.85783088,65.8119853 8.74827206,65.5326103 C8.61132353,65.1820221 8.47985294,64.8369118 8.35386029,64.4863235 C8.20047794,64.07 8.05805147,63.6536765 7.92110294,63.2263971 C7.84441176,63.0018015 7.77319853,62.7772059 7.69650735,62.5526103 C7.51573529,61.9719485 7.34591912,61.3912868 7.19253676,60.7996691 C7.170625,60.7229779 7.14323529,60.6408088 7.12132353,60.5641176 C6.75430147,59.1453309 6.45301471,57.7046324 6.22294118,56.2310662 C6.11886029,55.5791912 6.03669118,54.9382721 5.96547794,54.291875 C5.95452206,54.1768382 5.93261029,54.0618015 5.92165441,53.9412868 C5.87783088,53.5523529 5.85591912,53.1634191 5.82852941,52.7744853 C5.79566176,52.3910294 5.75731618,51.9966176 5.74636029,51.6076838 C5.73540441,51.4926471 5.74088235,51.3776103 5.73540441,51.2625735 C5.70253676,50.6106985 5.680625,49.9588235 5.680625,49.3014706 C5.680625,48.1730147 5.74088235,47.0609926 5.81757353,45.9544485 C5.89974265,44.8588603 6.01477941,43.76875 6.17911765,42.6622059 C6.40371324,41.1886397 6.69952206,39.7369853 7.05558824,38.3181985 C7.07202206,38.2415074 7.09393382,38.1648162 7.11584559,38.0936029 C7.26922794,37.4965074 7.43904412,36.9103676 7.61433824,36.3297059 C7.68555147,36.1051103 7.75676471,35.8750368 7.83345588,35.6559191 C7.97040441,35.2341176 8.10735294,34.8123162 8.25525735,34.3905147 C8.38125,34.0399265 8.51272059,33.6948162 8.64419118,33.3442279 C8.74827206,33.059375 8.86330882,32.78 8.97286765,32.500625 C9.15911765,32.0569118 9.35084559,31.6186765 9.54257353,31.1804412 C9.61926471,30.9996691 9.70143382,30.8188971 9.778125,30.6490809 C9.99724265,30.1779779 10.2218382,29.7123529 10.4519118,29.2522059 C10.523125,29.1207353 10.5833824,28.9892647 10.6545956,28.8632721 C10.6600735,28.8468382 10.6710294,28.8304044 10.6765074,28.8139706 C10.9175368,28.3428676 11.1804779,27.8827206 11.4379412,27.4225735 C11.5201103,27.2691912 11.6077574,27.1158088 11.6954044,26.9679044 C11.9473897,26.5296691 12.2158088,26.1023897 12.47875,25.6805882 C12.5883088,25.5052941 12.7033456,25.3245221 12.8129044,25.1547059 C13.0594118,24.77125 13.3278309,24.3932721 13.5852941,24.0152941 C13.7331985,23.8071324 13.875625,23.5934926 14.0235294,23.3853309 C14.2590809,23.0566544 14.5055882,22.7389338 14.7466176,22.4157353 C14.9383456,22.1692279 15.1245956,21.9117647 15.3218015,21.6707353 C15.5354412,21.4023162 15.7545588,21.1448529 15.9736765,20.8764338 C16.1982721,20.6134926 16.4228676,20.3450735 16.6529412,20.0821324 C16.6748529,20.0492647 16.7022426,20.021875 16.7241544,19.9999632 C16.9049265,19.7972794 17.0911765,19.6000735 17.2664706,19.3973897 C17.4910662,19.1563603 17.7211397,18.9098529 17.9457353,18.6743015 C18.0443382,18.5756985 18.1429412,18.4661397 18.2360662,18.3675368 C18.3675368,18.2360662 18.4990074,18.1100735 18.6304779,17.9786029 C18.8441176,17.7594853 19.0632353,17.5513235 19.2878309,17.3376838 C19.4686029,17.1678676 19.649375,16.9870956 19.8301471,16.8172794 C19.9068382,16.7405882 19.9890074,16.6748529 20.0656985,16.5981618 C20.2629044,16.4173897 20.4655882,16.2420956 20.6627941,16.0722794 C20.9366912,15.8367279 21.2051103,15.5902206 21.4899632,15.3601471 C21.5228309,15.3327574 21.5611765,15.3053676 21.5940441,15.2779779 C21.7583824,15.1410294 21.9336765,15.0095588 22.1034926,14.8726103 C22.4650368,14.5877574 22.8211029,14.2974265 23.1936029,14.0180515 C23.1990809,14.0125735 23.2045588,14.0125735 23.2100368,14.0070956 C23.3360294,13.9139706 23.4620221,13.8208456 23.5880147,13.7331985 C24.0317279,13.41 24.4699632,13.0868015 24.9246324,12.7800368 C25.0013235,12.7307353 25.0725368,12.6869118 25.1492279,12.6376103 C25.6531985,12.2979779 26.1626471,11.9693015 26.6830515,11.6570588 C26.7049632,11.640625 26.726875,11.6296691 26.7542647,11.6132353 C26.7652206,11.6077574 26.7761765,11.6022794 26.7871324,11.5913235 C27.3349265,11.2626471 27.8936765,10.9394485 28.4579044,10.6326838 C28.5181618,10.5998162 28.5729412,10.5669485 28.6277206,10.5450368 C29.1590809,10.2547059 29.7013971,9.98080882 30.2491912,9.71786765 C30.3642279,9.65761029 30.4847426,9.60283088 30.6107353,9.54257353 C31.0927941,9.31797794 31.5803309,9.09886029 32.0623897,8.88522059 C32.2869853,8.79209559 32.500625,8.69897059 32.7252206,8.61132353 C33.1196324,8.45246324 33.5195221,8.29360294 33.9139338,8.14022059 C34.27,8.01422794 34.6205882,7.88823529 34.9766544,7.76772059 C35.2560294,7.67459559 35.5299265,7.57599265 35.8093015,7.48834559 C36.31875,7.32400735 36.8336765,7.170625 37.3486029,7.02819853 C37.4910294,6.984375 37.6279779,6.94602941 37.7649265,6.90768382 C39.1398897,6.54066176 40.5422426,6.23389706 41.9774632,6.00382353 C42.1911029,5.96547794 42.3992647,5.94356618 42.6074265,5.91617647 L42.6074265,5.91069853 C44.6287868,5.61488971 46.6884926,5.45602941 48.7920221,5.45602941 C49.0056618,5.45602941 49.2138235,5.46698529 49.4274632,5.47246324 C49.4274632,5.46698529 49.4274632,5.46698529 49.4274632,5.46698529 C51.2132721,5.494375 53.0209926,5.63680147 54.8341912,5.89974265 C56.2803676,18.1867647 62.1198529,25.2697426 62.1198529,25.2697426 C71.2625368,38.8714706 84.278125,42.7498529 91.5473529,43.8399632 C91.7390809,45.6641176 91.8595956,47.5101838 91.8595956,49.3288603 Z M96.9376471,44.234375 L96.9540809,44.234375 C97.0198162,43.4126838 96.0447426,38.5811397 96.0447426,38.5811397 C60.2244853,34.6698897 60.0382353,1.35305147 60.0382353,1.35305147 C59.2658456,1.12845588 57.7320221,0.854558824 56.4775735,0.657352941 C56.4775735,0.651875 56.4775735,0.640919118 56.4775735,0.635441176 C56.3515809,0.613529412 56.2255882,0.586139706 56.0995956,0.564227941 C55.68875,0.498492647 55.2779044,0.460147059 54.8670588,0.405367647 C54.6315074,0.367022059 54.4890809,0.345110294 54.4890809,0.345110294 L54.4890809,0.350588235 C49.2028676,-0.290330882 44.0043015,-0.0438235294 39.0358088,0.991507353 C38.8769485,1.024375 38.7235662,1.06819853 38.5647059,1.09558824 C37.9621324,1.22705882 37.3650368,1.36400735 36.7679412,1.51738971 C36.6090809,1.56121324 36.4502206,1.60503676 36.2858824,1.64886029 C36.2420588,1.66529412 36.2037132,1.67625 36.1598897,1.68720588 C35.9243382,1.75841912 35.6833088,1.82415441 35.4532353,1.89536765 C35.1464706,1.98301471 34.8451838,2.06518382 34.5438971,2.15830882 C34.363125,2.21308824 34.1823529,2.27334559 34.0125368,2.33360294 C33.8536765,2.38838235 33.6948162,2.44316176 33.5359559,2.49794118 C33.2675368,2.58558824 32.9991176,2.67871324 32.7252206,2.77183824 C32.6047059,2.82113971 32.4787132,2.85400735 32.3527206,2.90330882 C32.1664706,2.97452206 31.9802206,3.04025735 31.7994485,3.11147059 C31.5200735,3.21555147 31.2461765,3.33606618 30.9722794,3.445625 C30.7476838,3.53327206 30.5176103,3.62639706 30.2984926,3.71952206 C30.265625,3.73047794 30.2327574,3.74143382 30.2053676,3.75786765 C30.0191176,3.83455882 29.8383456,3.91125 29.6630515,3.98794118 C29.2795956,4.15775735 28.9016176,4.33852941 28.5236397,4.51382353 C28.2059191,4.66172794 27.8881985,4.80963235 27.5704779,4.96301471 C27.1103309,5.19308824 26.6556618,5.43411765 26.2009926,5.67514706 C26.1352574,5.71349265 26.0695221,5.74636029 26.0037868,5.77922794 L25.9983088,5.77922794 C25.8394485,5.86139706 25.6860662,5.94904412 25.5272059,6.03669118 C25.0177574,6.31606618 24.5302206,6.60639706 24.0317279,6.90768382 C24.0043382,6.92411765 23.9824265,6.94055147 23.9550368,6.95698529 C23.8126103,7.03915441 23.6701838,7.12132353 23.5332353,7.20897059 C23.0347426,7.51573529 22.5472059,7.83893382 22.0596691,8.16761029 C22.0268015,8.18952206 21.9939338,8.21691176 21.9610662,8.23882353 C21.8405515,8.32099265 21.7145588,8.40316176 21.5885662,8.48533088 C21.1174632,8.81400735 20.6573162,9.14816176 20.1971691,9.48779412 C20.1369118,9.53161765 20.0766544,9.57544118 20.0163971,9.61926471 C19.9123162,9.69595588 19.7972794,9.778125 19.6931985,9.86029412 C19.2659191,10.1889706 18.8495956,10.523125 18.4277941,10.8627574 C18.3346691,10.9394485 18.2305882,11.0216176 18.1374632,11.0983088 C18.0443382,11.175 17.9402574,11.2571691 17.8471324,11.3393382 C17.4746324,11.6515809 17.1130882,11.9747794 16.7460662,12.2979779 C16.6091176,12.4239706 16.4666912,12.5444853 16.3297426,12.6704779 C16.2420956,12.7526471 16.1544485,12.8348162 16.0668015,12.9169853 C15.7545588,13.2073162 15.4477941,13.503125 15.1465074,13.7989338 C14.9657353,13.9742279 14.7794853,14.155 14.6096691,14.3302941 C14.5220221,14.4124632 14.434375,14.5055882 14.3522059,14.5932353 C14.1111765,14.8452206 13.8591912,15.1081618 13.6236397,15.365625 C13.3990441,15.5956985 13.1854044,15.83125 12.9662868,16.0668015 C12.8841176,16.1654044 12.7964706,16.2640074 12.7143015,16.3626103 C12.5280515,16.57625 12.3418015,16.7898897 12.1610294,17.0090074 C11.9145221,17.2993382 11.6625368,17.5841912 11.4215074,17.88 C11.36125,17.9566912 11.3119485,18.0279044 11.2516912,18.1045956 C11.2078676,18.1538971 11.175,18.2031985 11.1366544,18.2525 C11.0106618,18.4113603 10.8846691,18.5702206 10.7586765,18.7345588 C10.4957353,19.0741912 10.2273162,19.4138235 9.96985294,19.7644118 C9.93150735,19.8082353 9.89863971,19.8520588 9.87125,19.9013603 C9.79455882,19.9999632 9.72882353,20.1095221 9.65213235,20.208125 C9.57544118,20.3176838 9.49327206,20.4327206 9.41658088,20.5422794 C9.14816176,20.9257353 8.87974265,21.3091912 8.61680147,21.698125 C8.58393382,21.7474265 8.55106618,21.79125 8.52367647,21.8405515 C8.44698529,21.9555882 8.37029412,22.0761029 8.29908088,22.2020956 C8.24430147,22.2842647 8.195,22.3719118 8.13474265,22.4540809 C7.87727941,22.8594485 7.61433824,23.2702941 7.36235294,23.6866176 C7.31305147,23.7687868 7.26922794,23.8619118 7.21444853,23.9495588 C7.15966912,24.0317279 7.11584559,24.1303309 7.06106618,24.2125 C7.01176471,24.2946691 6.96794118,24.3877941 6.91316176,24.4699632 C6.67761029,24.8808088 6.43658088,25.2971324 6.21198529,25.7244118 C6.11886029,25.8997059 6.03121324,26.0804779 5.94356618,26.2502941 C5.87783088,26.3708088 5.82305147,26.4913235 5.75731618,26.6173162 C5.55463235,27.0117279 5.35194853,27.4116176 5.15474265,27.8169853 C5.06709559,28.0032353 4.98492647,28.1894853 4.90275735,28.3757353 C4.82606618,28.5455515 4.749375,28.7208456 4.67816176,28.8906618 C4.67268382,28.9016176 4.66720588,28.9070956 4.66720588,28.9180515 C4.50834559,29.2686397 4.34948529,29.6082721 4.20158088,29.9588603 C4.12488971,30.1505882 4.04819853,30.3423162 3.97150735,30.5340441 C3.88933824,30.7476838 3.81264706,30.9558456 3.73047794,31.1694853 C3.62639706,31.4433824 3.51136029,31.7172794 3.40727941,31.9966544 C3.38536765,32.0514338 3.36345588,32.1007353 3.34154412,32.1609926 C3.27580882,32.3472426 3.21555147,32.5389706 3.14433824,32.7197426 C3.05121324,32.9991176 2.95808824,33.2784926 2.86496324,33.5578676 C2.71705882,34.0180147 2.56367647,34.4781618 2.42672794,34.9383088 C2.31169118,35.3162868 2.20761029,35.6997426 2.10900735,36.0777206 C2.00492647,36.4556985 1.90084559,36.8172426 1.80772059,37.1952206 C1.68172794,37.7046691 1.57216912,38.2086397 1.46261029,38.7235662 C1.40235294,38.9810294 1.34757353,39.2384926 1.29279412,39.4959559 C1.16680147,40.1478309 1.05176471,40.7997059 0.947683824,41.4625368 C0.925772059,41.5885294 0.898382353,41.7090441 0.881948529,41.8350368 C0.761433824,42.6293382 0.662830882,43.4181618 0.586139706,44.2234191 C0.580661765,44.2288971 0.580661765,44.234375 0.580661765,44.2398529 C0.438235294,45.6915074 0.356066176,47.1650735 0.345110294,48.6441176 C0.339632353,48.9070588 0.328676471,49.1754779 0.328676471,49.4438971 C0.328676471,49.7068382 0.345110294,49.9752574 0.350588235,50.2436765 C0.405367647,53.2894118 0.723088235,56.2913235 1.32018382,59.2055882 C1.33113971,59.2603676 1.34209559,59.3096691 1.35852941,59.3644485 C1.50643382,60.0875368 1.66529412,60.7996691 1.84606618,61.5172794 C1.88441176,61.6816176 1.93371324,61.8404779 1.97753676,62.0048162 C1.97753676,62.0102941 1.97753676,62.0102941 1.97753676,62.0157721 C2.03231618,62.2184559 2.08709559,62.4101838 2.141875,62.6073897 C2.25143382,62.9963235 2.35551471,63.3962132 2.47055147,63.7796691 C2.53080882,63.9659191 2.58558824,64.1466912 2.64584559,64.3219853 C2.68419118,64.4479779 2.72801471,64.5684926 2.76636029,64.6944853 C2.84305147,64.9300368 2.92522059,65.1765441 3.00191176,65.4120956 C3.073125,65.6093015 3.13338235,65.8119853 3.20459559,66.0091912 C3.27580882,66.2009191 3.34154412,66.3871691 3.41275735,66.5734191 C3.50040441,66.8199265 3.60448529,67.0664338 3.69761029,67.3074632 C3.77430147,67.5101471 3.85099265,67.7128309 3.92768382,67.9100368 C3.97150735,68.0086397 4.004375,68.1072426 4.04272059,68.2058456 C4.11941176,68.3920956 4.19610294,68.5783456 4.26731618,68.7536397 C4.42069853,69.1151838 4.57955882,69.4602941 4.73841912,69.8108824 C4.79867647,69.9423529 4.85345588,70.0738235 4.91371324,70.1998162 C4.94110294,70.2545956 4.96301471,70.3038971 4.98492647,70.3586765 C5.06709559,70.5339706 5.14926471,70.7092647 5.23143382,70.8845588 C5.43959559,71.3227941 5.65871324,71.7500735 5.88330882,72.1773529 C5.91069853,72.2266544 5.93261029,72.2704779 5.96,72.3252574 C5.98738971,72.3745588 6.01477941,72.4293382 6.03669118,72.4786397 C6.11886029,72.6429779 6.20102941,72.8018382 6.28867647,72.9606985 C6.54066176,73.4372794 6.81455882,73.9083824 7.08297794,74.3740074 C7.12132353,74.4397426 7.15966912,74.5 7.19253676,74.5657353 C7.26922794,74.7081618 7.356875,74.8505882 7.43904412,74.9930147 C7.72389706,75.4641176 8.01970588,75.9242647 8.31551471,76.3844118 C8.35933824,76.4611029 8.40316176,76.5268382 8.44698529,76.5980515 C8.52915441,76.7240441 8.61132353,76.8500368 8.69349265,76.9705515 C8.98930147,77.4197426 9.29606618,77.8525 9.60830882,78.2852574 C9.67952206,78.3783824 9.73977941,78.4769853 9.81099265,78.5646324 C9.88768382,78.6741912 9.96985294,78.7892279 10.0465441,78.8987868 C10.3478309,79.2986765 10.6545956,79.6985662 10.9613603,80.0875 C11.0599632,80.2189706 11.1640441,80.3449632 11.268125,80.4764338 C11.3448162,80.5750368 11.4269853,80.6736397 11.5036765,80.7722426 C11.7885294,81.1228309 12.0788603,81.4569853 12.3691912,81.7966176 C12.5170956,81.9719118 12.665,82.1417279 12.8129044,82.3115441 C12.8950735,82.4046691 12.9772426,82.4977941 13.0594118,82.5854412 C13.316875,82.8702941 13.5798162,83.1496691 13.8427574,83.4290441 C14.0454412,83.6481618 14.2426471,83.8563235 14.4508088,84.0699632 C14.5329779,84.1521324 14.6261029,84.2452574 14.7082721,84.3274265 C14.9328676,84.5520221 15.1574632,84.7711397 15.3820588,84.9957353 C15.6395221,85.2422426 15.8969853,85.4942279 16.1599265,85.7352574 C16.2366176,85.8119485 16.3133088,85.8722059 16.39,85.9488971 C16.4173897,85.9708088 16.4447794,85.9981985 16.4666912,86.0201103 C16.6365074,86.1789706 16.8118015,86.3323529 16.9925735,86.4912132 C17.3048162,86.7651103 17.6170588,87.0444853 17.9402574,87.3183824 C17.9676471,87.3457721 18.0059926,87.3731618 18.0333824,87.3950735 C18.1319853,87.4772426 18.2415441,87.5594118 18.3401471,87.6415809 C18.4497059,87.7347059 18.5647426,87.8278309 18.6797794,87.9154779 C19.2056618,88.3372794 19.7260662,88.7426471 20.2629044,89.1480147 C20.3286397,89.1918382 20.3888971,89.2356618 20.4546324,89.2849632 C21.0352941,89.7067647 21.6214338,90.1176103 22.2185294,90.5229779 C22.256875,90.5448897 22.2897426,90.5722794 22.3226103,90.5941912 C22.7553676,90.8790441 23.188125,91.169375 23.6318382,91.4432721 C23.6647059,91.4597059 23.6920956,91.4761397 23.7194853,91.4980515 C23.8783456,91.5911765 24.0372059,91.6843015 24.1960662,91.7774265 C24.2289338,91.7993382 24.2672794,91.82125 24.2946691,91.8431618 C24.7383824,92.1061029 25.1820956,92.3690441 25.6312868,92.6210294 C25.7463235,92.6867647 25.8668382,92.7415441 25.9873529,92.8072794 C26.0585662,92.845625 26.1243015,92.8839706 26.1955147,92.9168382 C26.2667279,92.9497059 26.3324632,92.9880515 26.4036765,93.0209191 C26.8309559,93.2455147 27.2527574,93.4755882 27.6909926,93.6947059 C27.8772426,93.7823529 28.0634926,93.87 28.2497426,93.9576471 C28.3757353,94.0179044 28.5017279,94.0726838 28.6277206,94.1329412 C29.0111765,94.3137132 29.4001103,94.4999632 29.7945221,94.6643015 C29.9807721,94.7464706 30.1725,94.8231618 30.3642279,94.8998529 C30.5340441,94.9710662 30.7148162,95.0368015 30.8901103,95.1080147 C31.0982721,95.1901838 31.2954779,95.2778309 31.5091176,95.3545221 C31.6570221,95.4147794 31.8049265,95.4805147 31.9528309,95.5352941 C32.1390809,95.6119853 32.3253309,95.6722426 32.5115809,95.7379779 C32.7526103,95.825625 32.9991176,95.9077941 33.2346691,95.9899632 C33.7222059,96.1543015 34.2042647,96.3186397 34.6918015,96.4720221 C35.0314338,96.5761029 35.3655882,96.6692279 35.7052206,96.7623529 C36.1051103,96.8773897 36.505,96.9924265 36.9048897,97.1019853 C37.3650368,97.2170221 37.8306618,97.3211029 38.2962868,97.4251838 C38.5811397,97.4909191 38.8714706,97.5621324 39.1618015,97.6223897 C39.764375,97.7429044 40.3669485,97.8469853 40.975,97.9510662 C41.1393382,97.9784559 41.3036765,98.0168015 41.4680147,98.0332353 C42.2020588,98.1482721 42.9415809,98.246875 43.6865809,98.3235662 C43.7358824,98.3290441 43.7742279,98.3345221 43.8235294,98.34 C44.6013971,98.4166912 45.3792647,98.4769485 46.1571324,98.5207721 C46.2283456,98.52625 46.2940809,98.5317279 46.3652941,98.5372059 C46.8747426,98.5645956 47.3787132,98.5700735 47.8936397,98.5810294 C48.23875,98.5865074 48.5838603,98.5974632 48.9289706,98.5974632 C49.1371324,98.5974632 49.3398162,98.5865074 49.5534559,98.5810294 C52.5772794,98.5317279 55.5518015,98.2085294 58.4496324,97.6059559 C58.5482353,97.5840441 58.6468382,97.5566544 58.7399632,97.5347426 C59.4027941,97.3923162 60.0546691,97.2444118 60.7065441,97.0745956 C60.8818382,97.0252941 61.0571324,96.9814706 61.2324265,96.9321691 C61.2433824,96.9266912 61.2543382,96.9212132 61.2652941,96.9212132 C61.4405882,96.8719118 61.6213603,96.8226103 61.7911765,96.7678309 C62.1691544,96.66375 62.5471324,96.5596691 62.9196324,96.4446324 C63.1168382,96.3788971 63.3085662,96.3186397 63.5002941,96.2529044 C63.6262868,96.2090809 63.7413235,96.1707353 63.8727941,96.1269118 C64.0864338,96.0502206 64.3000735,95.9844853 64.5137132,95.9023162 C64.7109191,95.8311029 64.908125,95.7763235 65.0998529,95.6996324 C65.3025368,95.6284191 65.4997426,95.5517279 65.7024265,95.4750368 C65.9434559,95.3819118 66.1844853,95.2778309 66.4255147,95.1847059 C66.6062868,95.1080147 66.7925368,95.0422794 66.9733088,94.9601103 C67.0609559,94.9217647 67.1540809,94.8888971 67.2417279,94.8560294 C67.4389338,94.7738603 67.6306618,94.6862132 67.8278676,94.6040441 C68.1784559,94.4506618 68.5180882,94.2918015 68.8631985,94.1274632 C68.9837132,94.0726838 69.1042279,94.0233824 69.2302206,93.963125 C69.2685662,93.9412132 69.3069118,93.9247794 69.3507353,93.9083456 C69.5369853,93.8206985 69.7232353,93.7275735 69.9040074,93.6344485 C70.3367647,93.4208088 70.7640441,93.1962132 71.1858456,92.9716176 C71.2351471,92.9442279 71.2734926,92.9223162 71.3227941,92.8949265 C71.3556618,92.8784926 71.3885294,92.8620588 71.4159191,92.845625 C71.5857353,92.7525 71.7610294,92.659375 71.9308456,92.56625 C72.4074265,92.3033088 72.8730515,92.0294118 73.3441544,91.7445588 C73.3770221,91.7226471 73.4153676,91.7007353 73.4482353,91.6788235 C73.6016176,91.5856985 73.7604779,91.4925735 73.9138603,91.3994485 C74.3904412,91.1036397 74.8615441,90.796875 75.3271691,90.4846324 C75.3655147,90.4627206 75.4038603,90.4353309 75.4367279,90.4079412 C75.5736765,90.3202941 75.710625,90.2271691 75.8420956,90.1340441 C76.3022426,89.8218015 76.7514338,89.4986029 77.1951471,89.1644485 C77.2554044,89.120625 77.3101838,89.0822794 77.3704412,89.0384559 C77.4909559,88.9508088 77.6114706,88.8576838 77.7319853,88.7700368 C78.1537868,88.4523162 78.5646324,88.1236397 78.9754779,87.7949632 C79.063125,87.7182721 79.15625,87.6470588 79.2438971,87.5703676 C79.3479779,87.4827206 79.4630147,87.3895956 79.5670956,87.3019485 C79.9395956,86.9897059 80.3011397,86.6719853 80.6626838,86.3487868 C80.7941544,86.2392279 80.9201471,86.1241912 81.0461397,86.0036765 C81.1447426,85.9160294 81.2433456,85.8229044 81.3419485,85.7352574 C81.6541912,85.4449265 81.9664338,85.1491176 82.2731985,84.8478309 C82.4430147,84.6834926 82.6073529,84.5191544 82.7716912,84.3548162 C82.8648162,84.2616912 82.9634191,84.1630882 83.0510662,84.0699632 C83.3085294,83.8125 83.5659926,83.5440809 83.8125,83.2756618 C84.0151838,83.0565441 84.2123897,82.8483824 84.4150735,82.6292647 C84.5027206,82.5251838 84.5958456,82.415625 84.6889706,82.3115441 C84.8916544,82.0869485 85.0833824,81.8623529 85.2805882,81.6322794 C85.5051838,81.3693382 85.7407353,81.1063971 85.9598529,80.8270221 C86.0475,80.7229412 86.1351471,80.6024265 86.2173162,80.4928676 C86.2282721,80.4873897 86.23375,80.4764338 86.2447059,80.4654779 C86.3926103,80.2792279 86.5350368,80.0929779 86.6829412,79.9122059 C86.9239706,79.5999632 87.1759559,79.2877206 87.4115074,78.9645221 C87.4772426,78.876875 87.5375,78.78375 87.6032353,78.6961029 C87.6470588,78.6358456 87.6854044,78.5810662 87.7292279,78.5208088 C87.8278309,78.3838603 87.9319118,78.2469118 88.0250368,78.1044853 C88.2770221,77.7538971 88.5290074,77.4087868 88.7645588,77.0472426 C88.8302941,76.9541176 88.8850735,76.8555147 88.9508088,76.7678676 C89.0001103,76.6911765 89.0439338,76.6144853 89.0932353,76.5432721 C89.1699265,76.4337132 89.2411397,76.3186765 89.3123529,76.2091176 C89.5533824,75.8366176 89.7998897,75.4586397 90.0299632,75.0751838 C90.1066544,74.9491912 90.1778676,74.8122426 90.2545588,74.68625 C90.2819485,74.6369485 90.3093382,74.593125 90.33125,74.5438235 C90.4024632,74.4342647 90.4627206,74.3192279 90.5284559,74.2041912 C90.7530515,73.8262132 90.9721691,73.4427574 91.1858088,73.0538235 C91.2844118,72.8675735 91.3775368,72.6813235 91.4706618,72.5005515 C91.5473529,72.3636029 91.6130882,72.2266544 91.6897794,72.0842279 C91.8815074,71.7172059 92.0677574,71.3556618 92.2485294,70.9776838 C92.3416544,70.7859559 92.4293015,70.58875 92.5169485,70.3915441 C92.6045956,70.2052941 92.6867647,70.0190441 92.7689338,69.8273162 C92.9168382,69.5041176 93.0702206,69.1809191 93.2126471,68.8522426 C93.2948162,68.6495588 93.3769853,68.4523529 93.4536765,68.2441912 C93.5468015,68.0195956 93.6344485,67.795 93.7220956,67.5704044 C93.7987868,67.3786765 93.87,67.1979044 93.9466912,67.0061765 C93.9905147,66.8911397 94.0343382,66.7815809 94.0781618,66.6665441 C94.1548529,66.4693382 94.2151103,66.2776103 94.2918015,66.0749265 C94.3904044,65.7845956 94.4890074,65.4942647 94.5876103,65.2039338 C94.7355147,64.7602206 94.8834191,64.3219853 95.0203676,63.8727941 C95.1354044,63.4948162 95.2449632,63.1058824 95.3490441,62.7279044 C95.4476471,62.3608824 95.5572059,61.9993382 95.6448529,61.6268382 C95.7708456,61.1338235 95.8804044,60.6353309 95.9954412,60.1368382 C96.0556985,59.8738971 96.1159559,59.6109559 96.1762132,59.3480147 C96.3022059,58.7180515 96.4117647,58.0826103 96.5213235,57.4526471 C96.5432353,57.3102206 96.5761029,57.1677941 96.5980147,57.0198897 C96.7130515,56.2639338 96.8171324,55.5079779 96.8993015,54.7410662 C96.8993015,54.7027206 96.9047794,54.6698529 96.9102574,54.6369853 C97.2718015,51.2570956 97.2937132,47.7676471 96.9376471,44.234375" id="Shape"></path>
				<path d="M81.0790074,46.74875 C81.1447426,47.586875 81.1830882,48.4414338 81.1830882,49.3014706 C81.1830882,67.5265809 66.6665441,82.3005882 48.7591544,82.3005882 C30.8462868,82.3005882 16.3352206,67.5211029 16.3352206,49.3014706 C16.3352206,31.0708824 30.8462868,16.296875 48.7591544,16.296875 C49.7780515,16.296875 50.7859926,16.3571324 51.7829779,16.4447794 C51.1968382,14.7082721 50.6983456,12.9224632 50.3039338,11.1037868 C49.7890074,11.081875 49.2795588,11.0599632 48.7591544,11.0599632 C28.0087132,11.0599632 11.1859559,28.1840074 11.1859559,49.3014706 C11.1859559,70.4189338 28.0087132,87.5375 48.7591544,87.5375 C69.5095956,87.5375 86.3323529,70.4189338 86.3323529,49.3014706 C86.3323529,48.9727941 86.3159191,48.6495956 86.3049632,48.3263971 C84.5246324,47.8936397 82.7771691,47.3732353 81.0790074,46.74875" id="Path"></path>
			</g>
			<g id="Group" transform="translate(0.000000, 121.610294)">
				<path d="M22.0432353,22.1692279 C24.3330147,19.8411029 25.4779044,17.0144853 25.4779044,13.6948529 C25.4779044,10.3752206 24.3330147,7.54860294 22.0432353,5.22047794 C19.7589338,2.89235294 17.0090074,1.72555147 13.8044118,1.72555147 C10.5998162,1.72555147 7.84988971,2.89235294 5.56558824,5.22047794 C3.27580882,7.54860294 2.13091912,10.3752206 2.13091912,13.6948529 C2.13091912,17.0144853 3.27580882,19.8411029 5.56558824,22.1692279 C7.84988971,24.4973529 10.5998162,25.6641544 13.8044118,25.6641544 C17.0090074,25.6586765 19.7589338,24.4973529 22.0432353,22.1692279 M13.8044118,27.2418015 C10.0848897,27.2418015 6.91863971,25.9161397 4.31113971,23.2648162 C1.70911765,20.6134926 0.405367647,17.4253309 0.405367647,13.6948529 C0.405367647,9.964375 1.70911765,6.77073529 4.31113971,4.12488971 C6.91863971,1.47356618 10.0848897,0.147904412 13.8044118,0.147904412 C17.5239338,0.147904412 20.6901838,1.47356618 23.2976838,4.12488971 C25.8997059,6.77621324 27.2034559,9.964375 27.2034559,13.6948529 C27.2034559,17.4253309 25.8997059,20.6189706 23.2976838,23.2648162 C20.6901838,25.9161397 17.5294118,27.2418015 13.8044118,27.2418015" id="Shape"></path>
				<path d="M13.8044118,1.87345588 C10.6545956,1.87345588 7.915625,3.03477941 5.66419118,5.32455882 C3.41275735,7.61433824 2.27882353,10.43 2.27882353,13.6948529 C2.27882353,16.9597059 3.41823529,19.7753676 5.66419118,22.0651471 C7.915625,24.3549265 10.6545956,25.51625 13.8044118,25.51625 C16.9542279,25.51625 19.6931985,24.3549265 21.9446324,22.0651471 C24.1960662,19.7753676 25.33,16.9597059 25.33,13.6948529 C25.33,10.43 24.1905882,7.61433824 21.9446324,5.32455882 C19.6931985,3.03477941 16.9542279,1.87345588 13.8044118,1.87345588 M13.8044118,25.8065809 C10.5724265,25.8065809 7.77319853,24.6178676 5.46698529,22.2733088 C3.16077206,19.9232721 1.99397059,17.041875 1.99397059,13.7003309 C1.99397059,10.3587868 3.16077206,7.47191176 5.46698529,5.12735294 C7.77319853,2.77731618 10.5779044,1.58860294 13.8044118,1.58860294 C17.0363971,1.58860294 19.835625,2.77731618 22.1418382,5.12735294 C24.4480515,7.47191176 25.6148529,10.3587868 25.6148529,13.7003309 C25.6148529,17.041875 24.4480515,19.92875 22.1418382,22.2733088 C19.8411029,24.6123897 17.0363971,25.8065809 13.8044118,25.8065809 M13.8044118,0.290330882 C10.1396691,0.290330882 6.97889706,1.61599265 4.41522059,4.22349265 C1.85154412,6.83647059 0.547794118,10.0191544 0.547794118,13.6948529 C0.547794118,17.3705515 1.85154412,20.5532353 4.41522059,23.1662132 C6.97889706,25.7791912 10.1396691,27.099375 13.8044118,27.099375 C17.4691544,27.099375 20.6299265,25.7791912 23.1936029,23.1662132 C25.7572794,20.5532353 27.0610294,17.3705515 27.0610294,13.6948529 C27.0610294,10.0191544 25.7572794,6.83647059 23.1936029,4.22349265 C20.6354044,1.61599265 17.4691544,0.290330882 13.8044118,0.290330882 M13.8044118,27.3897059 C10.0575,27.3897059 6.83099265,26.0366544 4.21253676,23.3688971 C1.59408088,20.7011397 0.262941176,17.4472426 0.262941176,13.6948529 C0.262941176,9.94246324 1.59408088,6.68856618 4.21253676,4.01533088 C6.83099265,1.34757353 10.0575,-3.11384905e-14 13.8044118,-3.11384905e-14 C17.5513235,-3.11384905e-14 20.7778309,1.35305147 23.3962868,4.01533088 C26.0147426,6.68308824 27.3458824,9.93698529 27.3458824,13.6948529 C27.3458824,17.4472426 26.0147426,20.7011397 23.3962868,23.3688971 C20.7778309,26.0366544 17.5513235,27.3897059 13.8044118,27.3897059" id="Shape"></path>
				<path d="M53.2291544,17.6608824 C55.0094853,15.8476838 55.8969118,13.6455515 55.8969118,11.0544853 C55.8969118,8.45794118 55.0094853,6.26128676 53.2291544,4.44808824 C51.4488235,2.63488971 49.3124265,1.73102941 46.8199632,1.73102941 L37.7430147,1.73102941 L37.7430147,20.3834191 L46.8199632,20.3834191 C49.3124265,20.3779412 51.4488235,19.4740809 53.2291544,17.6608824 M36.0174632,0.142426471 L46.8254412,0.142426471 C49.8383088,0.142426471 52.3855515,1.210625 54.4836029,3.34702206 C56.5816544,5.48341912 57.6334191,8.04709559 57.6334191,11.0544853 C57.6334191,14.061875 56.5816544,16.6255515 54.4836029,18.7619485 C52.3855515,20.8983456 49.8328309,21.9665441 46.8254412,21.9665441 L37.7430147,21.9665441 L37.7430147,27.2472794 L36.0174632,27.2472794 L36.0174632,0.142426471 Z" id="Shape"></path>
				<path d="M37.8854412,20.2355147 L46.8199632,20.2355147 C49.2576471,20.2355147 51.3776103,19.3316544 53.1250735,17.5622794 C54.8670588,15.7874265 55.7544853,13.59625 55.7544853,11.0544853 C55.7544853,8.51272059 54.8670588,6.32702206 53.1250735,4.54669118 C51.3830882,2.77183824 49.2576471,1.87345588 46.8199632,1.87345588 L37.8854412,1.87345588 L37.8854412,20.2355147 Z M46.8254412,20.5258456 L37.6060662,20.5258456 L37.6060662,1.583125 L46.8254412,1.583125 C49.3398162,1.583125 51.5309926,2.514375 53.3332353,4.34948529 C55.1354779,6.17911765 56.0448162,8.44150735 56.0448162,11.0599632 C56.0448162,13.6784191 55.1354779,15.9353309 53.3332353,17.7704412 C51.5309926,19.5945956 49.3398162,20.5258456 46.8254412,20.5258456 M36.1598897,27.099375 L37.6005882,27.099375 L37.6005882,21.8241176 L46.8199632,21.8241176 C49.7725735,21.8241176 52.3143382,20.7559191 54.3795221,18.6633456 C56.4392279,16.5652941 57.4800368,14.0070956 57.4800368,11.0599632 C57.4800368,8.10735294 56.4392279,5.54915441 54.3795221,3.45658088 C52.3143382,1.35852941 49.7780515,0.295808824 46.8199632,0.295808824 L36.1544118,0.295808824 L36.1544118,27.099375 L36.1598897,27.099375 Z M37.8854412,27.3897059 L35.8695588,27.3897059 L35.8695588,0 L46.8199632,0 C49.8547426,0 52.4622426,1.09011029 54.5767279,3.24294118 C56.6912132,5.39577206 57.7648897,8.02518382 57.7648897,11.0544853 C57.7648897,14.0837868 56.6912132,16.7131985 54.5767279,18.8605515 C52.4622426,21.0133824 49.8492647,22.1089706 46.8199632,22.1089706 L37.8854412,22.1089706 L37.8854412,27.3897059 Z" id="Shape"></path>
				<rect id="Rectangle" x="66.4419485" y="0.142426471" width="1.72555147" height="27.099375"></rect>
				<path d="M66.5788971,0.290330882 L68.0195956,0.290330882 L68.0195956,27.099375 L66.5788971,27.099375 L66.5788971,0.290330882 Z M66.2940441,27.3897059 L68.3099265,27.3897059 L68.3099265,0 L66.2940441,0 L66.2940441,27.3897059 Z" id="Shape"></path>
				<path d="M99.4575,23.7578309 C99.7697426,23.4072426 99.923125,23.2209926 99.923125,23.2155147 L99.8738235,23.2702941 C97.2663235,25.9216176 94.1000735,27.2472794 90.3805515,27.2472794 C86.6610294,27.2472794 83.4947794,25.9216176 80.8872794,23.2702941 C78.2852574,20.6189706 76.9815074,17.4253309 76.9815074,13.7003309 C76.9815074,9.96985294 78.2852574,6.77621324 80.8872794,4.12488971 C83.4947794,1.47356618 86.6610294,0.147904412 90.3805515,0.147904412 C94.1000735,0.147904412 97.2827574,1.47904412 99.9066912,4.14132353 C100.355882,4.61242647 100.898199,5.27525735 101.53364,6.12981618 L99.4410662,6.12981618 C99.1288235,5.76827206 98.8549265,5.46698529 98.6303309,5.23143382 C96.3350735,2.89783088 93.5851471,1.73102941 90.3805515,1.73102941 C87.1759559,1.73102941 84.4260294,2.89783088 82.1417279,5.22595588 C79.8519485,7.55408088 78.7070588,10.3752206 78.7070588,13.7003309 C78.7070588,17.0199632 79.8519485,19.8411029 82.1417279,22.1692279 C84.4260294,24.4973529 87.1759559,25.6641544 90.3805515,25.6641544 C93.5851471,25.6641544 96.3350735,24.4973529 98.6303309,22.16375 C98.8604044,21.9391544 99.1397794,21.6104779 99.4575,21.1777206 L99.4575,14.9328676 L94.3739706,14.9328676 L94.3739706,13.3497426 L101.183051,13.3497426 L101.183051,21.2708456 L101.204963,21.2708456 C101.204963,21.7529044 101.199485,21.9939338 101.183051,21.9939338 L101.183051,27.2527574 L99.4575,27.2527574 L99.4575,23.7578309 L99.4575,23.7578309 Z" id="Path"></path>
				<path d="M99.5999265,27.099375 L101.040625,27.099375 L101.051581,21.8405515 C101.051581,21.7638603 101.057059,21.6323897 101.057059,21.4077941 L101.040625,21.2653676 L101.040625,13.4921691 L94.5163971,13.4921691 L94.5163971,14.7849632 L99.5999265,14.7849632 L99.5999265,21.2270221 L99.5725368,21.2653676 C99.2493382,21.7036029 98.9644853,22.0432353 98.7289338,22.2678309 C96.4227206,24.6178676 93.6125368,25.8120588 90.3805515,25.8120588 C87.1540441,25.8120588 84.3493382,24.6233456 82.043125,22.2787868 C79.7369118,19.92875 78.5701103,17.0473529 78.5701103,13.7058088 C78.5701103,10.3642647 79.7369118,7.47738971 82.043125,5.13283088 C84.3493382,2.78279412 87.1540441,1.59408088 90.3805515,1.59408088 C93.6125368,1.59408088 96.4172426,2.78827206 98.7289338,5.13830882 C98.9480515,5.36290441 99.2109926,5.65323529 99.5068015,5.99286765 L101.243309,5.99286765 C100.690037,5.25334559 100.207978,4.67268382 99.8026103,4.25088235 C97.2170221,1.63242647 94.0452941,0.301286765 90.3805515,0.301286765 C86.7158088,0.301286765 83.5550368,1.62694853 80.9913603,4.23444853 C78.4276838,6.84742647 77.1294118,10.0301103 77.1294118,13.7058088 C77.1294118,17.3815074 78.4276838,20.5641912 80.9913603,23.1771691 C83.5605147,25.7901471 86.7158088,27.1103309 90.3805515,27.1103309 C94.0452941,27.1103309 97.2060662,25.7901471 99.7697426,23.1771691 L100.065551,22.8758824 L100.065551,23.2264706 C100.065551,23.2976838 100.065551,23.2976838 99.5999265,23.8290441 L99.5999265,27.099375 L99.5999265,27.099375 Z M101.325478,27.3897059 L99.3095956,27.3897059 L99.3095956,24.0043382 C96.8116544,26.2557721 93.8097426,27.3897059 90.3750735,27.3897059 C86.6281618,27.3897059 83.4016544,26.0366544 80.7831985,23.3688971 C78.1647426,20.7011397 76.8336029,17.4472426 76.8336029,13.6948529 C76.8336029,9.94246324 78.1647426,6.68856618 80.7831985,4.01533088 C83.4016544,1.34757353 86.6281618,-3.11384905e-14 90.3750735,-3.11384905e-14 C94.1219853,-3.11384905e-14 97.3594485,1.35852941 100.005294,4.03724265 C100.459963,4.50834559 101.007757,5.18213235 101.643199,6.04216912 L101.813015,6.27772059 L99.3698529,6.27772059 L99.3260294,6.22294118 C99.0192647,5.866875 98.7508456,5.56558824 98.5207721,5.33551471 C96.2693382,3.04025735 93.5248897,1.87345588 90.3750735,1.87345588 C87.2252574,1.87345588 84.4862868,3.03477941 82.2403309,5.32455882 C79.994375,7.61433824 78.8494853,10.43 78.8494853,13.6948529 C78.8494853,16.9597059 79.9888971,19.7753676 82.2403309,22.0651471 C84.4917647,24.3549265 87.2307353,25.51625 90.3750735,25.51625 C93.5248897,25.51625 96.2693382,24.3549265 98.5207721,22.0596691 C98.7398897,21.8460294 99.0083088,21.5337868 99.3095956,21.1229412 L99.3095956,15.0752941 L94.2260662,15.0752941 L94.2260662,13.2018382 L101.32,13.2018382 L101.32,21.1229412 L101.336434,21.2653676 C101.336434,21.6762132 101.336434,21.8953309 101.32,22.0103676 L101.32,27.3897059 L101.325478,27.3897059 Z" id="Shape"></path>
				<path d="M111.728088,11.0544853 L111.728088,27.2418015 L110.002537,27.2418015 L110.002537,11.0544853 C110.002537,8.05257353 111.054301,5.48341912 113.146875,3.34702206 C115.244926,1.210625 117.797647,0.142426471 120.805037,0.142426471 C123.812426,0.142426471 126.365147,1.210625 128.463199,3.34702206 C130.56125,5.48341912 131.607537,8.04709559 131.607537,11.0544853 L131.607537,27.2418015 L129.881985,27.2418015 L129.881985,11.0544853 C129.881985,8.45794118 128.994559,6.26128676 127.20875,4.44808824 C125.428419,2.63488971 123.292022,1.73102941 120.805037,1.73102941 C118.318051,1.73102941 116.181654,2.63488971 114.401324,4.44808824 C112.615515,6.26128676 111.728088,8.45794118 111.728088,11.0544853" id="Path"></path>
				<path d="M130.024412,27.099375 L131.46511,27.099375 L131.46511,11.0544853 C131.46511,8.101875 130.418824,5.54367647 128.359118,3.45110294 C126.299412,1.35305147 123.757647,0.290330882 120.799559,0.290330882 C117.841471,0.290330882 115.305184,1.35305147 113.24,3.45110294 C111.180294,5.54915441 110.139485,8.101875 110.139485,11.0544853 L110.139485,27.099375 L111.580184,27.099375 L111.580184,11.0544853 C111.580184,8.43602941 112.489522,6.17363971 114.291765,4.34400735 C116.094007,2.50889706 118.285184,1.57764706 120.799559,1.57764706 C123.319412,1.57764706 125.50511,2.50889706 127.307353,4.34400735 C129.109596,6.17363971 130.024412,8.43602941 130.024412,11.0544853 L130.024412,27.099375 L130.024412,27.099375 Z M131.749963,27.3897059 L129.734081,27.3897059 L129.734081,11.0544853 C129.734081,8.51272059 128.846654,6.32702206 127.104669,4.54669118 C125.362684,2.77183824 123.237243,1.87345588 120.799559,1.87345588 C118.361875,1.87345588 116.241912,2.77731618 114.494449,4.54669118 C112.746985,6.32154412 111.865037,8.51272059 111.865037,11.0544853 L111.865037,27.3897059 L109.849154,27.3897059 L109.849154,11.0544853 C109.849154,8.02518382 110.922831,5.39577206 113.037316,3.24294118 C115.151801,1.09011029 117.764779,0 120.794081,0 C123.82886,0 126.441838,1.09011029 128.556324,3.24294118 C130.670809,5.39577206 131.744485,8.02518382 131.744485,11.0544853 L131.744485,27.3897059 L131.749963,27.3897059 Z" id="Shape"></path>
				<path d="M162.059412,22.1692279 C164.349191,19.8411029 165.494081,17.0144853 165.494081,13.6948529 C165.494081,10.3752206 164.349191,7.54860294 162.059412,5.22047794 C159.77511,2.89235294 157.025184,1.72555147 153.820588,1.72555147 C150.615993,1.72555147 147.866066,2.89235294 145.581765,5.22047794 C143.291985,7.54860294 142.147096,10.3752206 142.147096,13.6948529 C142.147096,17.0144853 143.291985,19.8411029 145.581765,22.1692279 C147.866066,24.4973529 150.615993,25.6641544 153.820588,25.6641544 C157.025184,25.6641544 159.769632,24.4973529 162.059412,22.1692279 M153.820588,27.2418015 C150.101066,27.2418015 146.934816,25.9161397 144.327316,23.2648162 C141.725294,20.6134926 140.421544,17.4253309 140.421544,13.6948529 C140.421544,9.964375 141.725294,6.77073529 144.327316,4.12488971 C146.934816,1.47356618 150.101066,0.147904412 153.820588,0.147904412 C157.54011,0.147904412 160.70636,1.47356618 163.31386,4.12488971 C165.915882,6.77621324 167.219632,9.964375 167.219632,13.6948529 C167.219632,17.4253309 165.915882,20.6189706 163.31386,23.2648162 C160.70636,25.9161397 157.54011,27.2418015 153.820588,27.2418015" id="Shape"></path>
				<path d="M153.820588,1.87345588 C150.670772,1.87345588 147.931801,3.03477941 145.680368,5.32455882 C143.428934,7.61433824 142.295,10.43 142.295,13.6948529 C142.295,16.9597059 143.434412,19.7753676 145.680368,22.0651471 C147.931801,24.3549265 150.670772,25.51625 153.820588,25.51625 C156.970404,25.51625 159.709375,24.3549265 161.960809,22.0651471 C164.212243,19.7753676 165.346176,16.9597059 165.346176,13.6948529 C165.346176,10.43 164.206765,7.61433824 161.960809,5.32455882 C159.709375,3.03477941 156.970404,1.87345588 153.820588,1.87345588 M153.820588,25.8065809 C150.588603,25.8065809 147.789375,24.6178676 145.483162,22.2733088 C143.176949,19.9232721 142.010147,17.041875 142.010147,13.7003309 C142.010147,10.3587868 143.176949,7.47191176 145.483162,5.12735294 C147.789375,2.77731618 150.594081,1.58860294 153.820588,1.58860294 C157.052574,1.58860294 159.851801,2.77731618 162.158015,5.12735294 C164.464228,7.47191176 165.631029,10.3587868 165.631029,13.7003309 C165.631029,17.041875 164.464228,19.92875 162.158015,22.2733088 C159.851801,24.6123897 157.047096,25.8065809 153.820588,25.8065809 M153.820588,0.290330882 C150.155846,0.290330882 146.995074,1.61599265 144.425919,4.22349265 C141.862243,6.83647059 140.558493,10.0191544 140.558493,13.6948529 C140.558493,17.3705515 141.862243,20.5532353 144.425919,23.1662132 C146.989596,25.7791912 150.150368,27.099375 153.820588,27.099375 C157.485331,27.099375 160.646103,25.7791912 163.209779,23.1662132 C165.773456,20.5532353 167.077206,17.3705515 167.077206,13.6948529 C167.077206,10.0191544 165.773456,6.83647059 163.209779,4.22349265 C160.646103,1.61599265 157.485331,0.290330882 153.820588,0.290330882 M153.820588,27.3897059 C150.073676,27.3897059 146.847169,26.0366544 144.228713,23.3688971 C141.604779,20.7011397 140.279118,17.4472426 140.279118,13.6948529 C140.279118,9.94246324 141.604779,6.68856618 144.228713,4.01533088 C146.847169,1.34757353 150.073676,-3.11384905e-14 153.820588,-3.11384905e-14 C157.5675,-3.11384905e-14 160.794007,1.35305147 163.412463,4.01533088 C166.030919,6.68308824 167.362059,9.93698529 167.362059,13.6948529 C167.362059,17.4472426 166.030919,20.7011397 163.412463,23.3688971 C160.794007,26.0366544 157.562022,27.3897059 153.820588,27.3897059" id="Shape"></path>
			</g>
		</g>
	</g>
</svg>
