<svg width="286px" height="150px" viewBox="0 0 286 150" version="1.1" xmlns="http://www.w3.org/2000/svg" xmlns:xlink="http://www.w3.org/1999/xlink">
    <g id="Page-1" stroke="none" stroke-width="1" fill="none" fill-rule="evenodd">
        <g id="korea" fill-rule="nonzero">
            <polygon id="Path" fill="#575756" points="18.47 126.36 18.47 144.86 15.47 144.86 15.47 130 10.64 144.89 7.8 144.89 3 130 3 144.89 0 144.89 0 126.39 4.56 126.39 9.24 140.8 13.91 126.39"></polygon>
            <path d="M25.5800199,127.82 C25.5823524,128.326045 25.3761843,128.810721 25.01,129.16 C24.6476338,129.525189 24.1544628,129.730588 23.64,129.730588 C23.1255372,129.730588 22.6323662,129.525189 22.27,129.16 C21.9038157,128.810721 21.6976476,128.326045 21.6999801,127.82 C21.6999801,126.748568 22.5685676,125.88 23.64,125.88 C24.7114324,125.88 25.5800199,126.748568 25.5800199,127.82 L25.5800199,127.82 Z M22.15,144.82 L22.15,131.52 L25.15,131.52 L25.15,144.82 L22.15,144.82 Z" id="Shape" fill="#575756"></path>
            <path d="M31.86,138.17 L31.86,144.86 L28.86,144.86 L28.86,131.56 L31.76,131.56 L31.76,133.34 C32.1226634,132.706488 32.6517715,132.184297 33.29,131.83 C33.9511181,131.442609 34.7037444,131.238917 35.47,131.24 C36.9081393,131.180165 38.296674,131.771578 39.25,132.85 C40.2429002,134.048341 40.7496752,135.575804 40.67,137.13 L40.67,144.86 L37.67,144.86 L37.67,137.86 C37.7466191,136.768767 37.5070554,135.678578 36.98,134.72 C36.4946359,134.036033 35.6862776,133.656522 34.85,133.72 C34.3304063,133.727789 33.8265048,133.899256 33.41,134.21 C32.9318591,134.546973 32.5577139,135.01119 32.33,135.55 C31.9882213,136.379804 31.8279668,137.273138 31.86,138.17 L31.86,138.17 Z" id="Path" fill="#575756"></path>
            <path d="M47.6800376,127.82 C47.6333028,128.866468 46.787069,129.699616 45.74,129.73 C45.224267,129.737067 44.7285162,129.530805 44.37,129.16 C44.0038157,128.810721 43.7976476,128.326045 43.7999801,127.82 C43.805469,126.750841 44.6708411,125.885469 45.74,125.88 C46.2527382,125.873307 46.745254,126.079729 47.1,126.45 C47.4734844,126.80749 47.6832662,127.303009 47.6800376,127.82 L47.6800376,127.82 Z M44.25,144.82 L44.25,131.52 L47.25,131.52 L47.25,144.82 L44.25,144.82 Z" id="Shape" fill="#575756"></path>
            <path d="M49.74,142.39 L51.62,140.45 C52.0938519,141.119441 52.687108,141.695747 53.37,142.15 C53.9727784,142.516357 54.664621,142.710073 55.37,142.71 C55.9661903,142.726597 56.5561567,142.585143 57.08,142.3 C57.5044069,142.092079 57.7752634,141.662578 57.78,141.19 C57.7756169,140.732934 57.5119525,140.31805 57.1,140.12 C56.5879766,139.832435 56.0527736,139.588249 55.5,139.39 C54.77,139.16 54.03,138.9 53.27,138.62 C52.3992708,138.354466 51.6154834,137.860714 51,137.19 C50.5323229,136.629379 50.2805001,135.920019 50.29,135.19 C50.3054179,134.058554 50.8827162,133.00892 51.83,132.39 C52.8769674,131.609704 54.1545551,131.201439 55.46,131.23 C56.7566352,131.175507 58.0353456,131.547879 59.1,132.29 C59.5743082,132.663189 59.963052,133.133774 60.24,133.67 L58.38,135.48 C58.151049,135.095102 57.852665,134.756029 57.5,134.48 C56.8890474,133.956749 56.1039076,133.681951 55.3,133.71 C54.8238923,133.699388 54.3560525,133.83555 53.96,134.1 C53.6247979,134.283697 53.4089881,134.628235 53.39,135.01 C53.4036596,135.435523 53.6493216,135.819369 54.03,136.01 C54.622461,136.343325 55.2539376,136.601962 55.91,136.78 L56.91,137.09 C58.0017602,137.404497 59.005042,137.969485 59.84,138.74 C60.4872861,139.373858 60.8483754,140.244083 60.84,141.15 C60.8049257,142.307197 60.2077796,143.374596 59.24,144.01 C58.056814,144.848397 56.6288563,145.270454 55.18,145.21 C53.8955857,145.238205 52.6285515,144.90933 51.52,144.26 C50.7893558,143.783526 50.179885,143.143239 49.74,142.39 L49.74,142.39 Z" id="Path" fill="#575756"></path>
            <path d="M67.14,127.29 L67.14,131.56 L70,131.56 L70,134 L67.1,134 L67.1,140.77 C67.0424047,141.256228 67.2164339,141.741288 67.57,142.08 C67.954064,142.343243 68.4153479,142.470008 68.88,142.44 L70,142.44 L70,144.86 L68.2,144.86 C67.0661789,144.947615 65.9429951,144.58877 65.07,143.86 C64.3608801,143.090782 63.9992709,142.063812 64.07,141.02 L64.07,134 L61.81,134 L61.81,131.56 L64.09,131.56 L64.09,127.29 L67.14,127.29 Z" id="Path" fill="#575756"></path>
            <path d="M72.55,144.86 L72.55,131.56 L75.39,131.56 L75.39,133.56 C75.7917281,132.916736 76.3443861,132.381241 77,132 C77.8124646,131.526904 78.740086,131.288076 79.68,131.31 L79.89,131.31 L79.89,134.02 L79.57,134.02 C78.4547132,133.964593 77.3670381,134.37791 76.57,135.16 C75.8160231,136.1517 75.4594106,137.389146 75.57,138.63 L75.57,144.82 L72.55,144.86 Z" id="Path" fill="#575756"></path>
            <polygon id="Path" fill="#575756" points="86.27 144.35 81 131.56 84.13 131.56 87.74 140.64 91.32 131.56 94.43 131.56 87.06 150 84 150"></polygon>
            <path d="M109.19,145.17 C107.320184,145.213893 105.513734,144.491312 104.19,143.17 C102.874029,141.856821 102.134489,140.074091 102.134489,138.215 C102.134489,136.355909 102.874029,134.573179 104.19,133.26 C106.969007,130.541357 111.410993,130.541357 114.19,133.26 C115.505971,134.573179 116.245511,136.355909 116.245511,138.215 C116.245511,140.074091 115.505971,141.856821 114.19,143.17 C112.868244,144.494312 111.060452,145.217428 109.19,145.17 L109.19,145.17 Z M109.19,142.680056 C110.267629,142.685893 111.295428,142.226663 112.01,141.42 C112.808915,140.550057 113.232869,139.400351 113.19,138.219993 C113.228981,137.032461 112.801883,135.876785 112,135 C111.28991,134.184829 110.261077,133.717841 109.18,133.719993 C108.104752,133.718334 107.082262,134.185758 106.38,135 C105.583923,135.872327 105.157325,137.019481 105.19,138.2 C105.149837,139.381747 105.577452,140.531636 106.38,141.4 C107.085362,142.215798 108.111552,142.683244 109.19,142.680056 L109.19,142.680056 Z" id="Shape" fill="#575756"></path>
            <path d="M119.48,130.15 C119.39373,129.110119 119.75788,128.083218 120.48,127.33 C121.377433,126.603052 122.518179,126.245451 123.67,126.33 L125.13,126.33 L125.13,128.74 L124.26,128.74 C123.795188,128.708415 123.333395,128.835319 122.95,129.1 C122.597454,129.443527 122.423895,129.930969 122.48,130.42 L122.48,131.53 L125.13,131.53 L125.13,134 L122.48,134 L122.48,144.86 L119.48,144.86 L119.48,134 L117.2,134 L117.2,131.56 L119.48,131.56 L119.48,130.15 Z" id="Path" fill="#575756"></path>
            <polygon id="Path" fill="#575756" points="147.84 144.86 135.68 144.86 135.68 126.36 147.78 126.36 147.78 128.93 138.78 128.93 138.78 134.29 147.56 134.29 147.56 136.79 138.78 136.79 138.78 142.28 147.83 142.28"></polygon>
            <path d="M153.91,138.17 L153.91,144.86 L150.91,144.86 L150.91,131.56 L153.8,131.56 L153.8,133.34 C154.170906,132.709445 154.702271,132.188431 155.34,131.83 C156.001118,131.442609 156.753744,131.238917 157.52,131.24 C158.95735,131.184469 160.344117,131.775129 161.3,132.85 C162.2929,134.048341 162.799675,135.575804 162.72,137.13 L162.72,144.86 L159.72,144.86 L159.72,137.86 C159.799396,136.767353 159.555981,135.675461 159.02,134.72 C158.540518,134.034482 157.733957,133.654029 156.9,133.72 C156.38017,133.726419 155.875856,133.898025 155.46,134.21 C154.981859,134.546973 154.607714,135.01119 154.38,135.55 C154.038221,136.379804 153.877967,137.273138 153.91,138.17 L153.91,138.17 Z" id="Path" fill="#575756"></path>
            <polygon id="Path" fill="#575756" points="171.1 142.34 174.66 131.56 177.79 131.56 173.17 144.86 169 144.86 164.38 131.56 167.52 131.56"></polygon>
            <path d="M183.00002,127.82 C183.002352,128.326045 182.796184,128.810721 182.43,129.16 C182.067634,129.525189 181.574463,129.730588 181.06,129.730588 C180.545537,129.730588 180.052366,129.525189 179.69,129.16 C179.323816,128.810721 179.117648,128.326045 179.11998,127.82 C179.11998,126.748568 179.988568,125.88 181.06,125.88 C182.131432,125.88 183.00002,126.748568 183.00002,127.82 L183.00002,127.82 Z M179.58,144.82 L179.58,131.52 L182.58,131.52 L182.58,144.82 L179.58,144.82 Z" id="Shape" fill="#575756"></path>
            <path d="M186.33,144.86 L186.33,131.56 L189.17,131.56 L189.17,133.56 C189.579778,132.936492 190.13153,132.419009 190.78,132.05 C191.592465,131.576904 192.520086,131.338076 193.46,131.36 L193.68,131.36 L193.68,134.07 L193.36,134.07 C192.244713,134.014593 191.157038,134.42791 190.36,135.21 C189.606023,136.2017 189.249411,137.439146 189.36,138.68 L189.36,144.87 L186.33,144.86 Z" id="Path" fill="#575756"></path>
            <path d="M201.63,145.17 C199.759973,145.215067 197.953077,144.492309 196.63,143.17 C195.314029,141.856821 194.574489,140.074091 194.574489,138.215 C194.574489,136.355909 195.314029,134.573179 196.63,133.26 C199.409007,130.541357 203.850993,130.541357 206.63,133.26 C207.945971,134.573179 208.685511,136.355909 208.685511,138.215 C208.685511,140.074091 207.945971,141.856821 206.63,143.17 C205.307582,144.493309 203.50024,145.216246 201.63,145.17 L201.63,145.17 Z M201.63,142.68 C202.710836,142.687472 203.742334,142.228218 204.46,141.42 C205.258915,140.550057 205.682869,139.400351 205.64,138.22 C205.676447,137.040684 205.253358,135.893325 204.46,135.02 C203.749812,134.208114 202.723669,133.742392 201.645,133.742392 C200.566331,133.742392 199.540188,134.208114 198.83,135.02 C198.036642,135.893325 197.613553,137.040684 197.65,138.22 C197.607131,139.400351 198.031085,140.550057 198.83,141.42 C199.538383,142.223557 200.558785,142.682737 201.63,142.68 L201.63,142.68 Z" id="Shape" fill="#575756"></path>
            <path d="M214.26,138.17 L214.26,144.86 L211.26,144.86 L211.26,131.56 L214.15,131.56 L214.15,133.34 C214.520906,132.709445 215.052271,132.188431 215.69,131.83 C216.350545,131.441246 217.103551,131.23745 217.87,131.24 C219.30735,131.184469 220.694117,131.775129 221.65,132.85 C222.6429,134.048341 223.149675,135.575804 223.07,137.13 L223.07,144.86 L220.07,144.86 L220.07,137.86 C220.151843,136.768391 219.911956,135.67673 219.38,134.72 C218.899174,134.036079 218.093581,133.656082 217.26,133.72 C216.74017,133.726419 216.235856,133.898025 215.82,134.21 C215.341859,134.546973 214.967714,135.01119 214.74,135.55 C214.3948,136.379054 214.231131,137.272415 214.26,138.17 L214.26,138.17 Z" id="Path" fill="#575756"></path>
            <path d="M240.69,131.24 C242.086839,131.17071 243.433745,131.768097 244.32,132.85 C245.239839,134.081084 245.699764,135.595298 245.62,137.13 L245.62,144.86 L242.62,144.86 L242.62,137.86 C242.686881,136.78263 242.491283,135.705124 242.05,134.72 C241.669232,134.056445 240.94329,133.66824 240.18,133.72 C239.695965,133.707802 239.222586,133.86324 238.84,134.16 C238.424718,134.497031 238.107086,134.938953 237.92,135.44 C237.644814,136.222951 237.5193,137.050665 237.55,137.88 L237.55,144.88 L234.55,144.88 L234.55,137.88 C234.619495,136.801463 234.420203,135.722541 233.97,134.74 C233.590856,134.079831 232.869793,133.692163 232.11,133.74 C231.634924,133.726356 231.170516,133.882341 230.8,134.18 C230.393843,134.525538 230.078058,134.964891 229.88,135.46 C229.583555,136.293601 229.447826,137.175843 229.48,138.06 L229.48,144.86 L226.48,144.86 L226.48,131.56 L229.29,131.56 L229.29,133.34 C229.914724,132.011404 231.272898,131.18469 232.74,131.24 C234.345274,131.20453 235.804001,132.169044 236.4,133.66 C236.798947,132.931394 237.368538,132.310333 238.06,131.85 C238.85963,131.397636 239.772882,131.185817 240.69,131.24 Z" id="Path" fill="#575756"></path>
            <path d="M251.3,139.55 C251.444356,140.325867 251.845967,141.030448 252.44,141.55 C253.370263,142.360266 254.577774,142.779491 255.81,142.72 C257.331892,142.700177 258.793882,142.123918 259.92,141.1 L260.82,143.33 C259.412476,144.558265 257.597706,145.217857 255.73,145.18 C253.725966,145.269785 251.764067,144.585985 250.25,143.27 C248.842176,141.997152 248.069691,140.16662 248.14,138.27 C248.078408,136.421753 248.750683,134.624227 250.01,133.27 C252.728209,130.621545 257.061791,130.621545 259.78,133.27 C261.035002,134.567736 261.716002,136.315275 261.67,138.12 C261.674495,138.619684 261.630961,139.118644 261.54,139.61 L251.3,139.55 Z M251.24,137.16 L258.62,137.16 C258.573611,136.259556 258.183459,135.411244 257.53,134.79 C256.817679,134.082662 255.84972,133.693236 254.846007,133.710184 C253.842293,133.727133 252.888034,134.149016 252.2,134.88 C251.660471,135.527674 251.326242,136.321468 251.24,137.16 L251.24,137.16 Z" id="Shape" fill="#575756"></path>
            <path d="M267.24,138.17 L267.24,144.86 L264.24,144.86 L264.24,131.56 L267.14,131.56 L267.14,133.34 C267.505393,132.705157 268.038092,132.182835 268.68,131.83 C269.337045,131.441604 270.086747,131.237768 270.85,131.24 C272.288139,131.180165 273.676674,131.771578 274.63,132.85 C275.6229,134.048341 276.129675,135.575804 276.05,137.13 L276.05,144.86 L273.05,144.86 L273.05,137.86 C273.126619,136.768767 272.887055,135.678578 272.36,134.72 C271.874636,134.036033 271.066278,133.656522 270.23,133.72 C269.710406,133.727789 269.206505,133.899256 268.79,134.21 C268.311859,134.546973 267.937714,135.01119 267.71,135.55 C267.368221,136.379804 267.207967,137.273138 267.24,138.17 Z" id="Path" fill="#575756"></path>
            <path d="M283.11,127.29 L283.11,131.56 L286,131.56 L286,134 L283.11,134 L283.11,140.77 C283.049854,141.254595 283.220089,141.739395 283.57,142.08 C283.95812,142.342588 284.422305,142.469184 284.89,142.44 L286,142.44 L286,144.86 L284.17,144.86 C283.035928,144.949774 281.911947,144.590675 281.04,143.86 C280.326699,143.093305 279.964432,142.064466 280.04,141.02 L280.04,134 L277.75,134 L277.75,131.56 L280.04,131.56 L280.04,127.29 L283.11,127.29 Z" id="Path" fill="#575756"></path>
            <path d="M168.85,48.91 C159.95,42.91 148.55,45.33 142.56,54.43 C138.62489,60.5988789 131.422098,63.8668957 124.188352,62.7654968 C116.954607,61.6640979 111.050826,56.4004945 109.13,49.34 L109.13,49.34 L109.08,49.15 C109.08,49.07 109.08,49 109.02,48.91 C108.303177,46.5310515 107.965705,44.0540055 108.02,41.57 C108.02,24.99 125.02,6.57 149.52,6.57 C174.6,6.57 188.95,25.66 192.65,36.27 C192.598664,36.0794754 192.535202,35.8924273 192.46,35.71 C184.05135,11.3479153 159.285915,-3.38647749 133.863709,0.847669766 C108.441503,5.08181702 89.7886074,27.0476673 89.73,52.82 C89.73,78.89 108.52,101.2 134.61,101.2 C155.41,101.2 169.4,89.54 175.81,73.46 C179.32,64.68 176.81,54.34 168.81,48.91" id="Path" fill="#003863"></path>
            <path d="M193,37.28 C189.92,26.93 175.46,6.54 149.54,6.54 C125.04,6.54 108.04,24.99 108.04,41.54 C107.965527,44.0241556 108.282747,46.5045413 108.98,48.89 C108.666703,47.6608078 108.502191,46.3984321 108.49,45.13 C108.49,27.86 125.78,15.91 143.55,15.91 C155.099258,15.9073474 166.176397,20.4934132 174.343894,28.6590347 C182.511391,36.8246561 187.1,47.9007412 187.1,59.45 C187.109292,77.6746041 176.796918,94.3324589 160.48,102.45 L160.48,102.45 C181.391886,94.8731733 195.320164,75.0121958 195.320164,52.77 C195.333179,47.5191467 194.550974,42.2965838 193,37.28" id="Path" fill="#E4032E"></path>
        </g>
    </g>
</svg>
